<?xml version="1.0" standalone="no"?>
<!DOCTYPE svg PUBLIC "-//W3C//DTD SVG 20010904//EN"
 "http://www.w3.org/TR/2001/REC-SVG-20010904/DTD/svg10.dtd">
<svg version="1.0" xmlns="http://www.w3.org/2000/svg"
 width="1060.000000pt" height="1060.000000pt" viewBox="0 0 1060.000000 1060.000000"
 preserveAspectRatio="xMidYMid meet">
<metadata>
Created by potrace 1.11, written by Peter Selinger 2001-2013
</metadata>
<g transform="translate(0.000000,1060.000000) scale(0.100000,-0.100000)"
fill="#000000" stroke="none">
<path d="M3118 10152 c-16 -2 -28 -8 -28 -13 0 -5 -6 -9 -13 -9 -24 0 -76 -55
-96 -101 -10 -24 -22 -66 -25 -94 -4 -27 -11 -75 -16 -105 -12 -75 -21 -131
-25 -155 -2 -11 -6 -40 -10 -65 -4 -25 -9 -58 -10 -75 -2 -16 -5 -30 -6 -30
-1 0 -3 -13 -4 -30 -2 -16 -4 -30 -5 -30 -1 0 -4 -13 -15 -95 -3 -19 -7 -46
-9 -60 -10 -63 -18 -117 -21 -137 -2 -12 -6 -34 -9 -50 -6 -31 -17 -105 -21
-143 -2 -14 -4 -25 -5 -25 -1 0 -3 -11 -5 -25 -3 -28 -13 -94 -20 -128 -2 -12
-7 -27 -10 -32 -3 -6 0 -10 7 -10 8 0 9 -3 3 -8 -5 -4 -11 -11 -12 -17 -1 -9
-7 -48 -18 -133 -3 -21 -7 -49 -10 -62 -8 -40 -17 -103 -21 -135 -1 -16 -8
-59 -14 -95 -7 -36 -13 -74 -14 -85 -3 -20 -13 -85 -23 -140 -2 -16 -6 -39 -7
-50 -2 -11 -6 -39 -10 -63 -4 -23 -9 -52 -11 -65 -7 -56 -19 -131 -36 -237
-29 -174 -29 -173 -31 -213 -2 -20 -7 -37 -11 -37 -5 0 -6 -3 -4 -7 3 -5 1
-33 -4 -63 -9 -53 -13 -83 -24 -164 -3 -21 -7 -41 -9 -45 -2 -3 -7 -31 -11
-61 -3 -30 -9 -68 -12 -85 -2 -16 -6 -39 -8 -50 -1 -11 -6 -40 -10 -65 -4 -25
-9 -58 -10 -75 -2 -16 -4 -30 -5 -30 -3 0 -8 -40 -14 -90 -2 -22 -6 -47 -9
-55 -3 -8 -8 -38 -11 -67 -3 -28 -8 -57 -10 -65 -4 -12 -7 -30 -22 -138 -2
-19 -9 -64 -15 -100 -6 -36 -12 -78 -15 -95 -2 -16 -6 -41 -9 -55 -3 -14 -8
-41 -10 -60 -2 -19 -6 -44 -8 -55 -3 -11 -8 -45 -12 -75 -4 -30 -9 -64 -11
-75 -3 -11 -6 -33 -9 -50 -11 -81 -16 -112 -20 -130 -2 -11 -7 -45 -10 -75 -4
-30 -8 -57 -10 -60 -3 -5 -17 -105 -18 -127 0 -7 -3 -13 -6 -13 -3 0 -7 -15
-7 -33 -1 -17 -5 -52 -9 -77 -4 -25 -8 -58 -10 -75 -2 -16 -4 -30 -5 -30 -2 0
-3 -9 -14 -90 -4 -27 -16 -99 -26 -160 -11 -60 -22 -130 -24 -155 -5 -43 -8
-62 -22 -140 -4 -19 -8 -48 -10 -65 -9 -76 -12 -92 -17 -110 -3 -11 -8 -40
-11 -65 -3 -25 -7 -54 -10 -65 -5 -30 -19 -117 -21 -140 -1 -11 -5 -38 -9 -60
-4 -22 -9 -49 -10 -60 -10 -68 -19 -123 -23 -140 -2 -11 -6 -38 -9 -60 -2 -22
-9 -62 -14 -90 -5 -27 -12 -72 -16 -100 -3 -27 -8 -59 -10 -70 -2 -11 -6 -38
-9 -60 -3 -22 -7 -51 -10 -65 -3 -14 -7 -43 -11 -65 -3 -22 -8 -49 -11 -60 -3
-11 -7 -33 -8 -50 -1 -16 -6 -50 -10 -75 -4 -25 -9 -58 -10 -75 -2 -16 -4 -31
-5 -32 -1 -2 -3 -11 -4 -20 -1 -10 -6 -38 -10 -63 -4 -25 -9 -57 -12 -72 -2
-16 -7 -43 -10 -60 -3 -18 -7 -49 -9 -68 -2 -19 -6 -46 -10 -60 -3 -14 -8 -43
-10 -65 -3 -22 -8 -53 -11 -70 -3 -16 -7 -46 -9 -65 -1 -19 -5 -42 -8 -50 -6
-20 -27 -156 -27 -178 0 -16 95 -79 112 -75 3 1 12 -4 18 -12 7 -8 19 -15 26
-15 8 0 14 -3 14 -8 0 -4 15 -13 33 -21 17 -8 40 -21 50 -29 9 -8 17 -11 17
-6 0 5 4 5 8 -1 4 -5 25 -20 47 -31 22 -12 105 -59 185 -104 80 -45 172 -96
205 -114 33 -17 62 -34 65 -37 5 -6 99 -58 175 -97 17 -8 32 -18 35 -21 3 -3
21 -14 40 -23 19 -10 49 -26 65 -35 89 -53 150 -86 151 -82 1 2 10 -3 20 -11
11 -8 28 -20 40 -26 229 -127 390 -220 392 -226 2 -4 8 -6 13 -2 5 3 9 0 9 -5
0 -6 3 -10 8 -9 4 1 34 -13 67 -33 33 -19 75 -42 93 -50 17 -7 32 -17 32 -21
0 -5 4 -8 10 -8 5 0 46 -21 92 -48 46 -26 104 -58 131 -72 26 -14 47 -28 47
-32 0 -5 7 -8 16 -8 9 0 28 -8 42 -19 15 -10 63 -38 107 -61 44 -23 92 -51
107 -61 14 -11 29 -19 32 -19 3 0 42 -21 88 -48 46 -26 101 -56 123 -67 22
-11 42 -23 45 -26 3 -3 34 -21 70 -41 36 -19 83 -45 105 -58 22 -13 60 -34 85
-47 25 -14 68 -38 95 -54 28 -17 58 -33 68 -36 9 -3 17 -9 17 -14 0 -5 3 -8 8
-7 4 1 21 -4 37 -11 17 -8 39 -17 50 -22 11 -5 31 -11 45 -13 14 -3 39 -9 55
-13 17 -5 39 -8 50 -8 11 0 23 -4 27 -10 5 -6 8 -6 8 0 0 6 26 10 58 9 126 -1
208 28 441 158 80 45 164 91 186 103 79 44 270 150 295 165 8 5 34 19 57 30
23 12 58 32 78 45 19 14 35 22 35 18 0 -3 8 1 18 9 9 9 34 23 55 33 20 9 37
22 37 27 0 5 4 7 9 4 5 -3 20 3 34 15 15 11 30 20 34 20 8 1 170 90 256 141
26 15 52 28 57 28 6 0 10 5 10 12 0 6 3 8 7 5 3 -4 11 -3 17 2 6 5 36 22 66
39 30 16 71 38 90 48 19 11 40 25 48 32 12 11 21 14 38 11 4 0 10 3 13 8 6 9
112 71 266 153 44 24 82 47 83 52 2 4 8 8 13 8 5 0 68 33 140 73 72 39 163 90
202 111 40 22 75 44 79 50 4 6 8 8 8 3 0 -4 17 3 38 16 20 13 52 30 70 38 17
8 32 18 32 22 0 5 4 6 9 3 5 -3 12 1 15 10 4 9 9 14 12 11 3 -3 27 8 54 24 26
16 52 29 59 29 6 0 11 4 11 8 0 5 16 14 35 22 19 8 35 18 35 24 0 5 3 6 6 3 4
-4 19 2 33 12 14 10 62 37 106 61 44 23 85 46 90 50 12 8 109 62 180 99 52 27
77 46 70 53 -3 2 -7 22 -10 44 -4 21 -9 53 -12 69 -14 86 -17 104 -27 170 -3
22 -8 51 -11 65 -3 14 -7 39 -9 55 -3 17 -8 53 -12 80 -4 28 -7 56 -7 63 0 6
-3 12 -6 12 -3 0 -7 17 -8 38 -4 75 -8 102 -14 102 -3 0 -6 6 -6 13 0 19 -12
109 -18 137 -5 23 -10 55 -20 130 -2 14 -4 25 -5 25 -4 0 -24 142 -23 168 0 9
-3 17 -7 17 -4 0 -7 6 -7 13 -1 24 -13 122 -18 137 -2 8 -6 33 -9 55 -3 22 -7
51 -10 65 -3 14 -7 42 -10 63 -3 20 -9 54 -12 75 -3 20 -7 48 -10 62 -2 14 -7
41 -10 60 -3 19 -12 73 -19 120 -8 47 -17 103 -20 125 -2 22 -7 51 -10 65 -2
13 -7 42 -11 65 -7 47 -12 70 -14 70 -1 0 -3 11 -4 25 -9 80 -18 145 -21 150
-2 3 -6 26 -10 50 -7 51 -43 274 -49 305 -2 11 -7 40 -10 65 -3 25 -8 54 -10
65 -9 52 -16 93 -21 130 -4 22 -8 47 -10 55 -2 8 -7 35 -10 60 -8 58 -11 76
-29 185 -16 92 -26 161 -31 205 -2 14 -4 25 -5 25 -3 0 -9 37 -15 85 -3 25 -7
56 -10 70 -3 14 -8 41 -11 60 -3 19 -9 60 -15 90 -14 81 -16 95 -34 214 -9 59
-18 118 -21 129 -2 12 -6 39 -9 62 -3 22 -8 47 -10 55 -3 13 -7 36 -20 135 -1
11 -3 20 -5 20 -1 0 -3 16 -5 35 -2 19 -6 49 -10 65 -6 29 -12 70 -20 125 -2
14 -4 25 -5 25 -2 0 -8 33 -14 80 -9 74 -26 180 -32 197 -3 9 -7 32 -9 50 -4
35 -12 92 -44 283 -11 66 -22 138 -26 160 -3 22 -8 50 -10 62 -3 12 -8 46 -11
75 -3 29 -8 56 -10 59 -2 4 -6 23 -9 43 -18 112 -123 185 -247 174 -29 -3 -54
-11 -56 -17 -2 -6 -8 -8 -14 -5 -5 4 -278 -262 -606 -590 l-596 -597 -20 43
c-11 24 -22 45 -25 48 -4 3 -28 48 -55 100 -26 52 -65 127 -86 165 -41 77
-130 246 -209 400 -29 54 -57 105 -63 112 -6 7 -7 13 -2 13 5 0 4 4 -1 8 -6 4
-31 48 -56 97 -63 123 -158 303 -180 341 -10 17 -16 34 -12 37 3 4 2 7 -3 7
-6 0 -26 33 -45 73 -19 39 -36 74 -39 77 -3 3 -21 36 -40 75 -19 38 -41 76
-47 83 -7 7 -13 20 -13 29 0 27 -85 101 -132 114 -90 25 -183 -1 -235 -65 -22
-29 -140 -247 -250 -466 -21 -41 -40 -77 -43 -80 -3 -3 -16 -25 -29 -50 -30
-57 -149 -288 -177 -342 -12 -24 -24 -37 -28 -30 -6 11 -16 28 -116 217 -30
55 -61 114 -71 130 -9 17 -34 64 -55 105 -21 41 -41 77 -45 80 -3 3 -16 29
-29 58 -13 28 -27 52 -31 52 -4 0 -10 13 -14 30 -4 16 -10 32 -15 35 -5 3 -24
36 -43 73 -19 37 -51 96 -70 132 -20 36 -53 99 -74 140 -21 41 -41 77 -44 80
-4 3 -15 23 -26 45 -52 104 -89 170 -95 173 -5 2 -8 12 -8 22 0 10 -3 20 -7
22 -5 2 -23 32 -42 68 -18 36 -46 88 -61 115 -52 95 -74 140 -72 148 1 4 -3 7
-8 7 -6 0 -10 7 -10 15 0 8 -3 15 -7 15 -5 0 -19 25 -32 55 -14 30 -28 55 -33
55 -4 0 -8 9 -8 19 0 11 -3 21 -7 23 -8 3 -25 35 -101 183 -19 39 -39 72 -44
73 -4 2 -8 12 -8 22 0 10 -3 20 -7 22 -5 2 -19 25 -33 53 -56 112 -138 153
-272 137z"/>
</g>
</svg>
